# Blender v2.78 (sub 0) OBJ File: 'ball.blend'
# www.blender.org
o Sphere
v 0.100000 0.141421 -0.050000
v 0.141421 -0.000000 -0.070711
v 0.100000 -0.141421 -0.050000
v 0.141421 0.141421 0.000000
v 0.200000 -0.000000 0.000000
v 0.141421 -0.141421 0.000000
v 0.100000 0.141421 0.050000
v 0.141421 -0.000000 0.070711
v 0.100000 -0.141421 0.050000
v 0.000000 0.141421 0.070711
v 0.000000 -0.000000 0.100000
v 0.000000 -0.141421 0.070711
v -0.000000 0.200000 0.000000
v -0.100000 0.141421 0.050000
v -0.141421 -0.000000 0.070711
v -0.100000 -0.141421 0.050000
v -0.141421 0.141421 0.000000
v -0.200000 -0.000000 0.000000
v -0.141421 -0.141421 0.000000
v 0.000000 -0.200000 0.000000
v -0.100000 0.141421 -0.050000
v -0.141421 -0.000000 -0.070711
v -0.100000 -0.141421 -0.050000
v 0.000000 0.141421 -0.070711
v 0.000000 -0.000000 -0.100000
v 0.000000 -0.141421 -0.070711
vn 0.1310 -0.7634 -0.6325
vn 0.1988 0.1988 -0.9597
vn 0.1988 -0.1988 -0.9597
vn 0.1310 0.7634 -0.6325
vn 0.7337 -0.3039 -0.6078
vn 0.3648 0.8807 -0.3022
vn 0.3648 -0.8807 -0.3022
vn 0.7337 0.3039 -0.6078
vn 0.7337 0.3039 0.6078
vn 0.7337 -0.3039 0.6078
vn 0.3648 0.8807 0.3022
vn 0.3648 -0.8807 0.3022
vn 0.1310 -0.7634 0.6325
vn 0.1988 0.1988 0.9597
vn 0.1988 -0.1988 0.9597
vn 0.1310 0.7634 0.6325
vn -0.1310 -0.7634 0.6325
vn -0.1988 0.1988 0.9597
vn -0.1988 -0.1988 0.9597
vn -0.1310 0.7634 0.6325
vn -0.3648 -0.8807 0.3022
vn -0.7337 0.3039 0.6078
vn -0.7337 -0.3039 0.6078
vn -0.3648 0.8807 0.3022
vn -0.3648 -0.8807 -0.3022
vn -0.7337 0.3039 -0.6078
vn -0.7337 -0.3039 -0.6078
vn -0.3648 0.8807 -0.3022
vn -0.1310 0.7634 -0.6325
vn -0.1310 -0.7634 -0.6325
vn -0.1988 0.1988 -0.9597
vn -0.1988 -0.1988 -0.9597
s off
f 20//1 26//1 3//1
f 25//2 1//2 2//2
f 25//3 3//3 26//3
f 24//4 13//4 1//4
f 2//5 6//5 3//5
f 1//6 13//6 4//6
f 20//7 3//7 6//7
f 2//8 4//8 5//8
f 4//9 8//9 5//9
f 6//10 8//10 9//10
f 4//11 13//11 7//11
f 20//12 6//12 9//12
f 20//13 9//13 12//13
f 7//14 11//14 8//14
f 9//15 11//15 12//15
f 7//16 13//16 10//16
f 20//17 12//17 16//17
f 11//18 14//18 15//18
f 11//19 16//19 12//19
f 10//20 13//20 14//20
f 20//21 16//21 19//21
f 15//22 17//22 18//22
f 15//23 19//23 16//23
f 14//24 13//24 17//24
f 20//25 19//25 23//25
f 17//26 22//26 18//26
f 19//27 22//27 23//27
f 17//28 13//28 21//28
f 21//29 13//29 24//29
f 20//30 23//30 26//30
f 21//31 25//31 22//31
f 23//32 25//32 26//32
f 25//2 24//2 1//2
f 25//3 2//3 3//3
f 2//5 5//5 6//5
f 2//8 1//8 4//8
f 4//9 7//9 8//9
f 6//10 5//10 8//10
f 7//14 10//14 11//14
f 9//15 8//15 11//15
f 11//18 10//18 14//18
f 11//19 15//19 16//19
f 15//22 14//22 17//22
f 15//23 18//23 19//23
f 17//26 21//26 22//26
f 19//27 18//27 22//27
f 21//31 24//31 25//31
f 23//32 22//32 25//32
