# Blender v2.78 (sub 0) OBJ File: 'body.blend'
# www.blender.org
o Cube
v 0.589446 4.490327 -1.000000
v 0.589446 4.490327 1.000000
v -0.632752 4.490327 1.000000
v -0.632752 4.490327 -1.000000
v 0.423417 9.821550 -0.423417
v 0.423417 9.821550 0.423417
v -0.423417 9.821550 0.423417
v -0.423417 9.821550 -0.423417
v 0.589446 4.490327 -0.500000
v 0.589446 4.490327 0.000000
v 0.589446 4.490327 0.500000
v -0.632752 4.490327 0.500000
v -0.632752 4.490327 -0.000000
v -0.632752 4.490327 -0.500000
v 0.527096 9.821550 -0.263548
v 0.574821 9.821550 0.000000
v 0.527096 9.821550 0.263548
v -0.527096 9.821550 0.263548
v -0.574821 9.821550 -0.000000
v -0.527096 9.821550 -0.263548
v 0.500000 4.490327 -1.000000
v 0.000000 4.490327 -1.000000
v -0.500000 4.490327 -1.000000
v 0.500000 4.490327 1.000000
v -0.000000 4.490327 1.000000
v -0.500000 4.490327 1.000000
v 0.263548 9.821550 -0.527096
v 0.000000 9.821550 -0.574821
v -0.263548 9.821550 -0.527096
v 0.263548 9.821550 0.527096
v -0.000000 9.821550 0.574821
v -0.263548 9.821550 0.527096
v -0.454613 10.327041 0.454613
v 0.454613 10.327041 -0.454612
v 0.565931 10.327041 -0.282965
v 0.617172 10.327041 0.000000
v 0.282965 10.327041 -0.565930
v 0.565930 10.327041 0.282966
v 0.000000 10.327041 -0.617172
v -0.565931 10.327041 0.282965
v 0.454612 10.327041 0.454613
v 0.500000 4.490327 -0.500000
v -0.500000 4.490327 -0.500000
v 0.500000 4.490327 -0.000000
v 0.000000 4.490327 -0.000000
v -0.500000 4.490327 -0.000000
v 0.500000 4.490327 0.500000
v -0.500000 4.490327 0.500000
v 0.661194 8.526762 -1.130071
v 0.319531 8.906929 -0.319531
v 0.319531 9.218156 -0.319531
v 0.661194 8.526762 1.130071
v 0.319531 8.906929 0.319531
v 0.319531 9.218156 0.319531
v -0.661194 8.526762 1.130071
v -0.319531 8.906929 0.319531
v -0.319531 9.218156 0.319531
v -0.661194 8.526762 -1.130071
v -0.319531 8.906929 -0.319531
v -0.319531 9.218156 -0.319531
v -0.319531 9.218156 0.159765
v -0.319531 8.906929 0.159765
v -0.661194 8.526762 0.565035
v -0.319531 9.218156 -0.000000
v -0.319531 8.906929 -0.000000
v -0.661194 8.526762 -0.000000
v -0.319531 9.218156 -0.159765
v -0.319531 8.906929 -0.159765
v -0.661194 8.526762 -0.565036
v 0.319531 9.218156 -0.159765
v 0.319531 8.906929 -0.159765
v 0.661194 8.526762 -0.565035
v 0.319531 9.218156 0.000000
v 0.319531 8.906929 0.000000
v 0.661194 8.526762 0.000000
v 0.319531 9.218156 0.159766
v 0.319531 8.906929 0.159766
v 0.661194 8.526762 0.565036
v 0.330597 8.526762 -1.130071
v 0.159765 8.906929 -0.319531
v 0.159765 9.218156 -0.319531
v 0.000000 8.526762 -1.130071
v 0.000000 8.906929 -0.319531
v 0.000000 9.218156 -0.319531
v -0.330597 8.526762 -1.130071
v -0.159765 8.906929 -0.319531
v -0.159765 9.218156 -0.319531
v 0.159765 9.218156 0.319531
v 0.159765 8.906929 0.319531
v 0.330597 8.526762 1.130071
v -0.000000 9.218156 0.319531
v -0.000000 8.906929 0.319531
v -0.000000 8.526762 1.130071
v -0.159766 9.218156 0.319531
v -0.159766 8.906929 0.319531
v -0.330597 8.526762 1.130071
v 0.250000 0.000000 -0.750000
v 0.000000 0.000000 -0.750000
v -0.250000 0.000000 -0.750000
v 0.250000 0.000000 -0.500000
v 0.000000 0.000000 -0.500000
v -0.250000 0.000000 -0.500000
v 0.250000 0.000000 -0.250000
v 0.000000 0.000000 -0.250000
v -0.250000 0.000000 -0.250000
v 0.250000 0.000000 0.750000
v -0.000000 0.000000 0.750000
v -0.250000 0.000000 0.750000
v 0.250000 0.000000 0.250000
v 0.000000 0.000000 0.250000
v -0.250000 0.000000 0.250000
v 0.250000 0.000000 0.500000
v -0.000000 0.000000 0.500000
v -0.250000 0.000000 0.500000
v 0.423417 9.821550 -0.423417
v 0.423417 9.821550 0.423417
v -0.423417 9.821550 0.423417
v -0.423417 9.821550 -0.423417
v 0.307649 10.832532 0.153825
v 0.247135 10.832532 0.247136
v -0.153825 10.832532 -0.307649
v -0.247135 10.832532 -0.247135
v -0.153825 10.832532 0.307650
v -0.247136 10.832532 0.247135
v -0.307650 10.832532 -0.153825
v 0.247135 10.832532 -0.247135
v 0.307650 10.832532 -0.153824
v 0.335505 10.832532 0.000000
v -0.307650 10.832532 0.153825
v -0.335505 10.832532 0.000000
v 0.167753 10.832532 -0.167752
v 0.167753 10.832532 0.000000
v 0.167752 10.832532 0.167753
v 0.153825 10.832532 -0.307649
v 0.000000 10.832532 -0.335505
v 0.153824 10.832532 0.307650
v -0.000000 10.832532 0.335505
v -0.167753 10.832532 -0.167753
v -0.000000 10.832532 -0.167752
v -0.167753 10.832532 0.000000
v -0.000000 10.832532 0.000000
v -0.167753 10.832532 0.167753
v -0.000000 10.832532 0.167753
v -0.282966 10.327041 0.565930
v -0.282965 10.327041 -0.565930
v -0.454613 10.327041 -0.454613
v -0.000000 10.327041 0.617172
v 0.282965 10.327041 0.565931
v -0.565931 10.327041 -0.282965
v -0.617172 10.327041 -0.000000
vn 0.0000 -1.0000 -0.0000
vn 0.7296 0.4937 0.4732
vn 0.9456 -0.3253 0.0000
vn 0.0000 -0.3253 0.9456
vn -0.9456 -0.3253 -0.0000
vn 0.0000 -0.0322 -0.9995
vn -0.9210 -0.3897 0.0000
vn 0.9210 -0.3897 0.0000
vn 0.4732 0.4937 0.7296
vn -0.8628 0.4808 0.1562
vn -0.1562 0.4808 -0.8628
vn -0.9985 -0.0556 -0.0000
vn 0.9985 -0.0556 0.0000
vn -0.0000 -0.0556 0.9985
vn 0.0000 -0.0556 -0.9985
vn -0.7296 0.4937 0.4732
vn 0.1562 0.4808 -0.8628
vn 0.8628 0.4808 0.1562
vn 0.4732 0.4937 -0.7296
vn 0.8628 0.4808 -0.1562
vn -0.7296 0.4937 -0.4732
vn 0.7296 0.4937 -0.4732
vn -0.4732 0.4937 0.7296
vn -0.1562 0.4808 0.8628
vn 0.0000 -0.3896 0.9210
vn -0.0000 -0.3897 0.9210
vn -0.4732 0.4937 -0.7296
vn 0.1562 0.4808 0.8628
vn -0.8628 0.4808 -0.1562
vn 0.0000 -0.0322 0.9995
vn 0.0000 0.9054 0.4246
vn -0.0000 -0.0000 1.0000
vn -0.1672 -0.3463 -0.9231
vn 0.0000 0.0000 -1.0000
vn 0.0000 0.9054 -0.4246
vn 0.1672 -0.3463 -0.9231
vn 0.5293 -0.2317 -0.8162
vn 0.9998 -0.0178 0.0000
vn 0.7438 0.6684 0.0000
vn 1.0000 0.0000 0.0000
vn -1.0000 -0.0070 -0.0000
vn -0.7438 0.6684 0.0000
vn -1.0000 0.0000 -0.0000
vn -0.5293 -0.2317 -0.8162
vn 0.0000 1.0000 0.0000
vn -0.9807 -0.0822 -0.1776
vn 0.1776 -0.0822 0.9807
vn -0.5421 -0.0850 -0.8360
vn -0.1776 -0.0822 0.9807
vn -0.5421 -0.0850 0.8360
vn 0.8360 -0.0850 -0.5421
vn -0.8360 -0.0850 -0.5421
vn 0.9807 -0.0822 -0.1776
vn 0.5421 -0.0850 -0.8360
vn 0.9807 -0.0822 0.1776
vn 0.1776 -0.0822 -0.9807
vn -0.8360 -0.0850 0.5421
vn -0.1776 -0.0822 -0.9807
vn -0.9807 -0.0822 0.1776
vn 0.5421 -0.0850 0.8360
vn 0.8360 -0.0850 0.5421
vn 0.8162 -0.2317 0.5293
vn -0.5293 -0.2317 0.8162
vn -0.8162 -0.2317 -0.5293
vn -0.8162 -0.2317 0.5293
vn -0.9231 -0.3463 0.1672
vn -0.9231 -0.3463 -0.1672
vn 0.8162 -0.2317 -0.5293
vn 0.9231 -0.3463 -0.1672
vn 0.9231 -0.3463 0.1672
vn 0.5293 -0.2317 0.8162
vn 0.1672 -0.3463 0.9231
vn -0.1672 -0.3463 0.9231
vn 0.0000 -0.3896 -0.9210
vn 0.0000 -0.3253 -0.9456
s off
f 26//1 12//1 48//1
f 38//2 120//2 41//2
f 17//3 54//3 76//3
f 32//4 57//4 94//4
f 20//5 60//5 67//5
f 23//6 58//6 85//6
f 57//5 18//5 61//5
f 61//7 19//7 64//7
f 19//7 67//7 64//7
f 51//3 15//3 70//3
f 70//8 16//8 73//8
f 16//8 76//8 73//8
f 148//9 120//9 136//9
f 150//10 129//10 130//10
f 39//11 121//11 135//11
f 43//1 4//1 23//1
f 46//1 14//1 43//1
f 48//1 13//1 46//1
f 10//1 47//1 44//1
f 48//12 108//12 26//12
f 47//13 109//13 44//13
f 9//1 44//1 42//1
f 45//14 105//14 104//14
f 22//15 97//15 98//15
f 1//1 42//1 21//1
f 45//14 103//14 44//14
f 42//13 97//13 21//13
f 40//16 124//16 129//16
f 39//17 134//17 37//17
f 36//18 119//18 38//18
f 37//19 126//19 34//19
f 36//20 127//20 128//20
f 149//21 122//21 146//21
f 35//22 126//22 127//22
f 144//23 124//23 33//23
f 147//24 123//24 144//24
f 49//6 21//6 79//6
f 79//6 22//6 82//6
f 22//6 85//6 82//6
f 54//4 30//4 88//4
f 88//25 31//25 91//25
f 31//26 94//26 91//26
f 145//27 122//27 121//27
f 147//28 136//28 137//28
f 150//29 125//29 149//29
f 11//1 24//1 47//1
f 48//12 111//12 114//12
f 45//15 109//15 110//15
f 25//30 96//30 26//30
f 93//31 95//31 96//31
f 91//32 95//32 92//32
f 90//30 25//30 24//30
f 89//31 93//31 90//31
f 88//32 92//32 89//32
f 52//30 24//30 2//30
f 53//31 90//31 52//31
f 54//32 89//32 53//32
f 28//33 87//33 29//33
f 84//34 86//34 87//34
f 82//35 86//35 83//35
f 81//36 28//36 27//36
f 80//34 84//34 81//34
f 80//35 82//35 83//35
f 51//37 27//37 5//37
f 50//34 81//34 51//34
f 50//35 79//35 80//35
f 75//38 11//38 10//38
f 75//39 77//39 78//39
f 73//40 77//40 74//40
f 9//38 75//38 10//38
f 71//39 75//39 72//39
f 70//40 74//40 71//40
f 1//38 72//38 9//38
f 50//39 72//39 49//39
f 51//40 71//40 50//40
f 66//41 14//41 13//41
f 66//42 68//42 69//42
f 64//43 68//43 65//43
f 12//41 66//41 13//41
f 62//42 66//42 63//42
f 61//43 65//43 62//43
f 3//41 63//41 12//41
f 56//42 63//42 55//42
f 57//43 62//43 56//43
f 29//44 60//44 8//44
f 87//34 59//34 60//34
f 85//35 59//35 86//35
f 69//41 4//41 14//41
f 69//42 59//42 58//42
f 68//43 60//43 59//43
f 26//30 55//30 3//30
f 96//31 56//31 55//31
f 94//32 56//32 95//32
f 78//38 2//38 11//38
f 78//39 53//39 52//39
f 76//40 53//40 77//40
f 100//1 104//1 101//1
f 101//1 105//1 102//1
f 97//1 101//1 98//1
f 101//1 99//1 98//1
f 43//12 105//12 46//12
f 22//15 99//15 23//15
f 42//13 103//13 100//13
f 43//12 99//12 102//12
f 109//1 113//1 110//1
f 110//1 114//1 111//1
f 112//1 107//1 113//1
f 107//1 114//1 113//1
f 25//14 106//14 24//14
f 45//15 111//15 46//15
f 47//13 106//13 112//13
f 25//14 108//14 107//14
f 142//45 124//45 123//45
f 122//45 138//45 121//45
f 125//45 140//45 138//45
f 140//45 129//45 142//45
f 132//45 119//45 128//45
f 132//45 143//45 133//45
f 141//45 142//45 143//45
f 127//45 132//45 128//45
f 139//45 132//45 131//45
f 138//45 141//45 139//45
f 126//45 131//45 127//45
f 134//45 139//45 131//45
f 121//45 139//45 135//45
f 133//45 120//45 119//45
f 143//45 136//45 133//45
f 143//45 123//45 137//45
f 20//46 150//46 149//46
f 30//47 147//47 31//47
f 8//48 145//48 29//48
f 32//49 147//49 144//49
f 7//50 144//50 33//50
f 5//51 35//51 15//51
f 8//52 149//52 146//52
f 15//53 36//53 16//53
f 5//54 37//54 34//54
f 17//55 36//55 38//55
f 27//56 39//56 37//56
f 7//57 40//57 18//57
f 29//58 39//58 28//58
f 18//59 150//59 19//59
f 6//60 148//60 30//60
f 6//61 38//61 41//61
f 26//1 3//1 12//1
f 38//2 119//2 120//2
f 17//62 6//62 54//62
f 32//63 7//63 57//63
f 20//64 8//64 60//64
f 23//6 4//6 58//6
f 57//65 7//65 18//65
f 61//66 18//66 19//66
f 19//67 20//67 67//67
f 51//68 5//68 15//68
f 70//69 15//69 16//69
f 16//70 17//70 76//70
f 148//9 41//9 120//9
f 150//10 40//10 129//10
f 39//11 145//11 121//11
f 43//1 14//1 4//1
f 46//1 13//1 14//1
f 48//1 12//1 13//1
f 10//1 11//1 47//1
f 48//12 114//12 108//12
f 47//13 112//13 109//13
f 9//1 10//1 44//1
f 45//14 46//14 105//14
f 22//15 21//15 97//15
f 1//1 9//1 42//1
f 45//14 104//14 103//14
f 42//13 100//13 97//13
f 40//16 33//16 124//16
f 39//17 135//17 134//17
f 36//18 128//18 119//18
f 37//19 134//19 126//19
f 36//20 35//20 127//20
f 149//21 125//21 122//21
f 35//22 34//22 126//22
f 144//23 123//23 124//23
f 147//24 137//24 123//24
f 49//6 1//6 21//6
f 79//6 21//6 22//6
f 22//6 23//6 85//6
f 54//71 6//71 30//71
f 88//72 30//72 31//72
f 31//73 32//73 94//73
f 145//27 146//27 122//27
f 147//28 148//28 136//28
f 150//29 130//29 125//29
f 11//1 2//1 24//1
f 48//12 46//12 111//12
f 45//15 44//15 109//15
f 25//30 93//30 96//30
f 93//31 92//31 95//31
f 91//32 94//32 95//32
f 90//30 93//30 25//30
f 89//31 92//31 93//31
f 88//32 91//32 92//32
f 52//30 90//30 24//30
f 53//31 89//31 90//31
f 54//32 88//32 89//32
f 28//74 84//74 87//74
f 84//34 83//34 86//34
f 82//35 85//35 86//35
f 81//74 84//74 28//74
f 80//34 83//34 84//34
f 80//35 79//35 82//35
f 51//75 81//75 27//75
f 50//34 80//34 81//34
f 50//35 49//35 79//35
f 75//38 78//38 11//38
f 75//39 74//39 77//39
f 73//40 76//40 77//40
f 9//38 72//38 75//38
f 71//39 74//39 75//39
f 70//40 73//40 74//40
f 1//38 49//38 72//38
f 50//39 71//39 72//39
f 51//40 70//40 71//40
f 66//41 69//41 14//41
f 66//42 65//42 68//42
f 64//43 67//43 68//43
f 12//41 63//41 66//41
f 62//42 65//42 66//42
f 61//43 64//43 65//43
f 3//41 55//41 63//41
f 56//42 62//42 63//42
f 57//43 61//43 62//43
f 29//75 87//75 60//75
f 87//34 86//34 59//34
f 85//35 58//35 59//35
f 69//41 58//41 4//41
f 69//42 68//42 59//42
f 68//43 67//43 60//43
f 26//30 96//30 55//30
f 96//31 95//31 56//31
f 94//32 57//32 56//32
f 78//38 52//38 2//38
f 78//39 77//39 53//39
f 76//40 54//40 53//40
f 100//1 103//1 104//1
f 101//1 104//1 105//1
f 97//1 100//1 101//1
f 101//1 102//1 99//1
f 43//12 102//12 105//12
f 22//15 98//15 99//15
f 42//13 44//13 103//13
f 43//12 23//12 99//12
f 109//1 112//1 113//1
f 110//1 113//1 114//1
f 112//1 106//1 107//1
f 107//1 108//1 114//1
f 25//14 107//14 106//14
f 45//15 110//15 111//15
f 47//13 24//13 106//13
f 25//14 26//14 108//14
f 142//45 129//45 124//45
f 122//45 125//45 138//45
f 125//45 130//45 140//45
f 140//45 130//45 129//45
f 132//45 133//45 119//45
f 132//45 141//45 143//45
f 141//45 140//45 142//45
f 127//45 131//45 132//45
f 139//45 141//45 132//45
f 138//45 140//45 141//45
f 126//45 134//45 131//45
f 134//45 135//45 139//45
f 121//45 138//45 139//45
f 133//45 136//45 120//45
f 143//45 137//45 136//45
f 143//45 142//45 123//45
f 20//46 19//46 150//46
f 30//47 148//47 147//47
f 8//48 146//48 145//48
f 32//49 31//49 147//49
f 7//50 32//50 144//50
f 5//51 34//51 35//51
f 8//52 20//52 149//52
f 15//53 35//53 36//53
f 5//54 27//54 37//54
f 17//55 16//55 36//55
f 27//56 28//56 39//56
f 7//57 33//57 40//57
f 29//58 145//58 39//58
f 18//59 40//59 150//59
f 6//60 41//60 148//60
f 6//61 17//61 38//61
l 5 115
l 6 116
l 7 117
l 8 118
