# Blender v2.78 (sub 0) OBJ File: ''
# www.blender.org
o Cube
v 1.000000 0.000000 -1.000000
v 1.000000 0.000000 1.000000
v -1.000000 0.000000 1.000000
v -1.000000 0.000000 -1.000000
v 1.000000 1.999999 -0.999999
v 0.999999 1.999999 1.000001
v -1.000000 1.999999 1.000000
v -1.000000 1.999999 -1.000000
v 0.666667 0.000000 -1.000000
v 0.333333 0.000000 -1.000000
v 0.000000 0.000000 -1.000000
v -0.333333 0.000000 -1.000000
v -0.666666 0.000000 -1.000000
v 0.666667 0.000000 1.000000
v 0.333333 0.000000 1.000000
v -0.000000 0.000000 1.000000
v -0.333333 0.000000 1.000000
v -0.666667 0.000000 1.000000
v 0.666667 1.999999 -1.000000
v 0.333334 1.999999 -1.000000
v 0.000000 1.999999 -1.000000
v -0.333333 1.999999 -1.000000
v -0.666667 1.999999 -1.000000
v 0.666666 1.999999 1.000000
v 0.333333 1.999999 1.000000
v -0.000001 1.999999 1.000000
v -0.333334 1.999999 1.000000
v -0.666667 1.999999 1.000000
v 1.000000 0.000000 -0.666667
v 1.000000 0.000000 -0.333333
v 1.000000 0.000000 0.000000
v 1.000000 0.000000 0.333333
v 1.000000 0.000000 0.666667
v -1.000000 0.000000 0.666666
v -1.000000 0.000000 0.333333
v -1.000000 0.000000 -0.000000
v -1.000000 0.000000 -0.333334
v -1.000000 0.000000 -0.666667
v 1.000000 1.999999 -0.666666
v 1.000000 1.999999 -0.333333
v 1.000000 1.999999 0.000001
v 1.000000 1.999999 0.333334
v 1.000000 1.999999 0.666667
v -1.000000 1.999999 0.666666
v -1.000000 1.999999 0.333333
v -1.000000 1.999999 -0.000000
v -1.000000 1.999999 -0.333333
v -1.000000 1.999999 -0.666667
v 0.666667 1.999999 -0.666666
v 0.666667 1.999999 -0.333333
v 0.666667 1.999999 0.000001
v 0.666666 1.999999 0.333334
v 0.666666 1.999999 0.666667
v 0.333333 1.999999 -0.666666
v 0.333333 1.999999 -0.333333
v 0.333333 1.999999 0.000000
v 0.333333 1.999999 0.333334
v 0.333333 1.999999 0.666667
v 0.000000 1.999999 -0.666666
v -0.000000 1.999999 -0.333333
v -0.000000 1.999999 0.000000
v -0.000000 1.999999 0.333334
v -0.000000 1.999999 0.666667
v -0.333333 1.999999 -0.666667
v -0.333333 1.999999 -0.333333
v -0.333333 1.999999 0.000000
v -0.333334 1.999999 0.333333
v -0.333334 1.999999 0.666667
v -0.666667 1.999999 -0.666667
v -0.666667 1.999999 -0.333333
v -0.666667 1.999999 0.000000
v -0.666667 1.999999 0.333333
v -0.666667 1.999999 0.666667
v 0.666667 0.000000 0.666667
v 0.666667 0.000000 0.333333
v 0.666667 0.000000 -0.000000
v 0.666667 0.000000 -0.333333
v 0.666667 0.000000 -0.666667
v 0.333333 0.000000 0.666667
v 0.333333 0.000000 0.333333
v 0.333333 0.000000 -0.000000
v 0.333333 0.000000 -0.333333
v 0.333333 0.000000 -0.666667
v -0.000000 0.000000 0.666667
v 0.000000 0.000000 0.333333
v 0.000000 0.000000 -0.000000
v 0.000000 0.000000 -0.333334
v 0.000000 0.000000 -0.666667
v -0.333333 0.000000 0.666667
v -0.333333 0.000000 0.333333
v -0.333333 0.000000 -0.000000
v -0.333333 0.000000 -0.333334
v -0.333333 0.000000 -0.666667
v -0.666667 0.000000 0.666667
v -0.666667 0.000000 0.333333
v -0.666667 0.000000 -0.000000
v -0.666667 0.000000 -0.333334
v -0.666666 0.000000 -0.666667
v 1.000000 0.333332 -1.000000
v 1.000000 0.666666 -1.000000
v 1.000000 0.999999 -1.000000
v 1.000000 1.333332 -1.000000
v 1.000000 1.666666 -1.000000
v 1.000000 0.333332 1.000000
v 1.000000 0.666666 1.000000
v 1.000000 0.999999 1.000000
v 1.000000 1.333332 1.000000
v 0.999999 1.666666 1.000000
v -1.000000 0.333332 1.000000
v -1.000000 0.666666 1.000000
v -1.000000 0.999999 1.000000
v -1.000000 1.333332 1.000000
v -1.000000 1.666666 1.000000
v -1.000000 0.333332 -1.000000
v -1.000000 0.666666 -1.000000
v -1.000000 0.999999 -1.000000
v -1.000000 1.333332 -1.000000
v -1.000000 1.666666 -1.000000
v 0.666667 0.333332 -1.000000
v 0.666667 0.666666 -1.000000
v 0.666667 0.999999 -1.000000
v 0.666667 1.333332 -1.000000
v 0.666667 1.666666 -1.000000
v 0.333333 0.333332 -1.000000
v 0.333334 0.666666 -1.000000
v 0.333334 0.999999 -1.000000
v 0.333334 1.333332 -1.000000
v 0.333334 1.666666 -1.000000
v 0.000000 0.333332 -1.000000
v 0.000000 0.666666 -1.000000
v 0.000000 0.999999 -1.000000
v 0.000000 1.333332 -1.000000
v 0.000000 1.666666 -1.000000
v -0.333333 0.333332 -1.000000
v -0.333333 0.666666 -1.000000
v -0.333333 0.999999 -1.000000
v -0.333333 1.333332 -1.000000
v -0.333333 1.666666 -1.000000
v -0.666666 0.333332 -1.000000
v -0.666666 0.666666 -1.000000
v -0.666667 0.999999 -1.000000
v -0.666667 1.333332 -1.000000
v -0.666667 1.666666 -1.000000
v 0.666666 1.666666 1.000000
v 0.666666 1.333332 1.000000
v 0.666666 0.999999 1.000000
v 0.666666 0.666666 1.000000
v 0.666667 0.333332 1.000000
v 0.333333 1.666666 1.000000
v 0.333333 1.333332 1.000000
v 0.333333 0.999999 1.000000
v 0.333333 0.666666 1.000000
v 0.333333 0.333332 1.000000
v -0.000000 1.666666 1.000000
v -0.000000 1.333332 1.000000
v -0.000000 0.999999 1.000000
v -0.000000 0.666666 1.000000
v -0.000000 0.333332 1.000000
v -0.333334 1.666666 1.000000
v -0.333334 1.333332 1.000000
v -0.333334 0.999999 1.000000
v -0.333334 0.666666 1.000000
v -0.333333 0.333332 1.000000
v -0.666667 1.666666 1.000000
v -0.666667 1.333332 1.000000
v -0.666667 0.999999 1.000000
v -0.666667 0.666666 1.000000
v -0.666667 0.333332 1.000000
v -1.000000 1.666666 0.666666
v -1.000000 1.333332 0.666666
v -1.000000 0.999999 0.666666
v -1.000000 0.666666 0.666666
v -1.000000 0.333332 0.666666
v -1.000000 1.666666 0.333333
v -1.000000 1.333332 0.333333
v -1.000000 0.999999 0.333333
v -1.000000 0.666666 0.333333
v -1.000000 0.333332 0.333333
v -1.000000 1.666666 -0.000000
v -1.000000 1.333332 -0.000000
v -1.000000 0.999999 -0.000000
v -1.000000 0.666666 -0.000000
v -1.000000 0.333332 -0.000000
v -1.000000 1.666666 -0.333333
v -1.000000 1.333332 -0.333334
v -1.000000 0.999999 -0.333334
v -1.000000 0.666666 -0.333334
v -1.000000 0.333332 -0.333334
v -1.000000 1.666666 -0.666667
v -1.000000 1.333332 -0.666667
v -1.000000 0.999999 -0.666667
v -1.000000 0.666666 -0.666667
v -1.000000 0.333332 -0.666667
v 1.000000 1.666666 -0.666666
v 1.000000 1.333332 -0.666666
v 1.000000 0.999999 -0.666666
v 1.000000 0.666666 -0.666666
v 1.000000 0.333332 -0.666667
v 1.000000 1.666666 -0.333333
v 1.000000 1.333332 -0.333333
v 1.000000 0.999999 -0.333333
v 1.000000 0.666666 -0.333333
v 1.000000 0.333332 -0.333333
v 1.000000 1.666666 0.000000
v 1.000000 1.333332 0.000000
v 1.000000 0.999999 0.000000
v 1.000000 0.666666 0.000000
v 1.000000 0.333332 0.000000
v 1.000000 1.666666 0.333334
v 1.000000 1.333332 0.333334
v 1.000000 0.999999 0.333334
v 1.000000 0.666666 0.333334
v 1.000000 0.333332 0.333333
v 1.000000 1.666666 0.666667
v 1.000000 1.333332 0.666667
v 1.000000 0.999999 0.666667
v 1.000000 0.666666 0.666667
v 1.000000 0.333332 0.666667
vn 0.0000 -1.0000 0.0000
vn 0.0000 1.0000 0.0000
vn 1.0000 0.0000 0.0000
vn -0.0000 0.0000 1.0000
vn -1.0000 0.0000 -0.0000
vn 0.0000 0.0000 -1.0000
s off
f 18//1 34//1 94//1
f 44//2 28//2 73//2
f 43//3 108//3 214//3
f 28//4 113//4 164//4
f 189//5 8//5 118//5
f 13//6 114//6 139//6
f 1//6 119//6 99//6
f 9//6 124//6 119//6
f 10//6 129//6 124//6
f 11//6 134//6 129//6
f 12//6 139//6 134//6
f 6//4 144//4 108//4
f 24//4 149//4 144//4
f 25//4 154//4 149//4
f 26//4 159//4 154//4
f 27//4 164//4 159//4
f 53//2 6//2 43//2
f 58//2 24//2 53//2
f 63//2 25//2 58//2
f 63//2 27//2 26//2
f 68//2 28//2 27//2
f 2//1 74//1 33//1
f 74//1 15//1 79//1
f 79//1 16//1 84//1
f 16//1 89//1 84//1
f 17//1 94//1 89//1
f 93//1 13//1 12//1
f 92//1 98//1 93//1
f 91//1 97//1 92//1
f 90//1 96//1 91//1
f 89//1 95//1 90//1
f 88//1 12//1 11//1
f 87//1 93//1 88//1
f 86//1 92//1 87//1
f 85//1 91//1 86//1
f 84//1 90//1 85//1
f 10//1 88//1 11//1
f 83//1 87//1 88//1
f 82//1 86//1 87//1
f 81//1 85//1 86//1
f 80//1 84//1 85//1
f 9//1 83//1 10//1
f 77//1 83//1 78//1
f 76//1 82//1 77//1
f 75//1 81//1 76//1
f 74//1 80//1 75//1
f 1//1 78//1 9//1
f 30//1 78//1 29//1
f 30//1 76//1 77//1
f 31//1 75//1 76//1
f 32//1 74//1 75//1
f 23//2 64//2 22//2
f 69//2 65//2 64//2
f 65//2 71//2 66//2
f 66//2 72//2 67//2
f 67//2 73//2 68//2
f 21//2 64//2 59//2
f 64//2 60//2 59//2
f 60//2 66//2 61//2
f 61//2 67//2 62//2
f 62//2 68//2 63//2
f 21//2 54//2 20//2
f 59//2 55//2 54//2
f 60//2 56//2 55//2
f 61//2 57//2 56//2
f 62//2 58//2 57//2
f 20//2 49//2 19//2
f 54//2 50//2 49//2
f 55//2 51//2 50//2
f 56//2 52//2 51//2
f 57//2 53//2 52//2
f 19//2 39//2 5//2
f 49//2 40//2 39//2
f 50//2 41//2 40//2
f 51//2 42//2 41//2
f 52//2 43//2 42//2
f 113//5 44//5 169//5
f 44//5 174//5 169//5
f 45//5 179//5 174//5
f 179//5 47//5 184//5
f 184//5 48//5 189//5
f 103//3 39//3 194//3
f 39//3 199//3 194//3
f 40//3 204//3 199//3
f 41//3 209//3 204//3
f 42//3 214//3 209//3
f 23//2 48//2 69//2
f 69//2 47//2 70//2
f 70//2 46//2 71//2
f 71//2 45//2 72//2
f 72//2 44//2 73//2
f 13//1 38//1 4//1
f 98//1 37//1 38//1
f 97//1 36//1 37//1
f 96//1 35//1 36//1
f 94//1 35//1 95//1
f 213//3 33//3 32//3
f 212//3 218//3 213//3
f 211//3 217//3 212//3
f 210//3 216//3 211//3
f 209//3 215//3 210//3
f 208//3 32//3 31//3
f 207//3 213//3 208//3
f 206//3 212//3 207//3
f 205//3 211//3 206//3
f 204//3 210//3 205//3
f 203//3 31//3 30//3
f 202//3 208//3 203//3
f 201//3 207//3 202//3
f 200//3 206//3 201//3
f 199//3 205//3 200//3
f 198//3 30//3 29//3
f 197//3 203//3 198//3
f 196//3 202//3 197//3
f 195//3 201//3 196//3
f 194//3 200//3 195//3
f 99//3 29//3 1//3
f 100//3 198//3 99//3
f 101//3 197//3 100//3
f 102//3 196//3 101//3
f 103//3 195//3 102//3
f 188//5 38//5 37//5
f 188//5 192//5 193//5
f 187//5 191//5 192//5
f 185//5 191//5 186//5
f 185//5 189//5 190//5
f 183//5 37//5 36//5
f 182//5 188//5 183//5
f 182//5 186//5 187//5
f 180//5 186//5 181//5
f 180//5 184//5 185//5
f 178//5 36//5 35//5
f 178//5 182//5 183//5
f 176//5 182//5 177//5
f 175//5 181//5 176//5
f 174//5 180//5 175//5
f 173//5 35//5 34//5
f 172//5 178//5 173//5
f 171//5 177//5 172//5
f 170//5 176//5 171//5
f 169//5 175//5 170//5
f 109//5 34//5 3//5
f 109//5 172//5 173//5
f 110//5 171//5 172//5
f 111//5 170//5 171//5
f 112//5 169//5 170//5
f 163//4 18//4 17//4
f 162//4 168//4 163//4
f 161//4 167//4 162//4
f 160//4 166//4 161//4
f 159//4 165//4 160//4
f 158//4 17//4 16//4
f 157//4 163//4 158//4
f 156//4 162//4 157//4
f 155//4 161//4 156//4
f 154//4 160//4 155//4
f 153//4 16//4 15//4
f 152//4 158//4 153//4
f 151//4 157//4 152//4
f 150//4 156//4 151//4
f 149//4 155//4 150//4
f 148//4 15//4 14//4
f 147//4 153//4 148//4
f 146//4 152//4 147//4
f 145//4 151//4 146//4
f 144//4 150//4 145//4
f 104//4 14//4 2//4
f 105//4 148//4 104//4
f 106//4 147//4 105//4
f 107//4 146//4 106//4
f 108//4 145//4 107//4
f 138//6 23//6 22//6
f 137//6 143//6 138//6
f 136//6 142//6 137//6
f 135//6 141//6 136//6
f 135//6 139//6 140//6
f 133//6 22//6 21//6
f 133//6 137//6 138//6
f 131//6 137//6 132//6
f 130//6 136//6 131//6
f 130//6 134//6 135//6
f 128//6 21//6 20//6
f 127//6 133//6 128//6
f 126//6 132//6 127//6
f 126//6 130//6 131//6
f 124//6 130//6 125//6
f 123//6 20//6 19//6
f 122//6 128//6 123//6
f 121//6 127//6 122//6
f 120//6 126//6 121//6
f 119//6 125//6 120//6
f 103//6 19//6 5//6
f 102//6 123//6 103//6
f 101//6 122//6 102//6
f 100//6 121//6 101//6
f 99//6 120//6 100//6
f 23//6 118//6 8//6
f 142//6 118//6 143//6
f 141//6 117//6 142//6
f 141//6 115//6 116//6
f 140//6 114//6 115//6
f 193//5 4//5 38//5
f 192//5 114//5 193//5
f 192//5 116//5 115//5
f 191//5 117//5 116//5
f 189//5 117//5 190//5
f 168//4 3//4 18//4
f 167//4 109//4 168//4
f 166//4 110//4 167//4
f 165//4 111//4 166//4
f 164//4 112//4 165//4
f 218//3 2//3 33//3
f 217//3 104//3 218//3
f 216//3 105//3 217//3
f 215//3 106//3 216//3
f 214//3 107//3 215//3
f 18//1 3//1 34//1
f 44//2 7//2 28//2
f 43//3 6//3 108//3
f 28//4 7//4 113//4
f 189//5 48//5 8//5
f 13//6 4//6 114//6
f 1//6 9//6 119//6
f 9//6 10//6 124//6
f 10//6 11//6 129//6
f 11//6 12//6 134//6
f 12//6 13//6 139//6
f 6//4 24//4 144//4
f 24//4 25//4 149//4
f 25//4 26//4 154//4
f 26//4 27//4 159//4
f 27//4 28//4 164//4
f 53//2 24//2 6//2
f 58//2 25//2 24//2
f 63//2 26//2 25//2
f 63//2 68//2 27//2
f 68//2 73//2 28//2
f 2//1 14//1 74//1
f 74//1 14//1 15//1
f 79//1 15//1 16//1
f 16//1 17//1 89//1
f 17//1 18//1 94//1
f 93//1 98//1 13//1
f 92//1 97//1 98//1
f 91//1 96//1 97//1
f 90//1 95//1 96//1
f 89//1 94//1 95//1
f 88//1 93//1 12//1
f 87//1 92//1 93//1
f 86//1 91//1 92//1
f 85//1 90//1 91//1
f 84//1 89//1 90//1
f 10//1 83//1 88//1
f 83//1 82//1 87//1
f 82//1 81//1 86//1
f 81//1 80//1 85//1
f 80//1 79//1 84//1
f 9//1 78//1 83//1
f 77//1 82//1 83//1
f 76//1 81//1 82//1
f 75//1 80//1 81//1
f 74//1 79//1 80//1
f 1//1 29//1 78//1
f 30//1 77//1 78//1
f 30//1 31//1 76//1
f 31//1 32//1 75//1
f 32//1 33//1 74//1
f 23//2 69//2 64//2
f 69//2 70//2 65//2
f 65//2 70//2 71//2
f 66//2 71//2 72//2
f 67//2 72//2 73//2
f 21//2 22//2 64//2
f 64//2 65//2 60//2
f 60//2 65//2 66//2
f 61//2 66//2 67//2
f 62//2 67//2 68//2
f 21//2 59//2 54//2
f 59//2 60//2 55//2
f 60//2 61//2 56//2
f 61//2 62//2 57//2
f 62//2 63//2 58//2
f 20//2 54//2 49//2
f 54//2 55//2 50//2
f 55//2 56//2 51//2
f 56//2 57//2 52//2
f 57//2 58//2 53//2
f 19//2 49//2 39//2
f 49//2 50//2 40//2
f 50//2 51//2 41//2
f 51//2 52//2 42//2
f 52//2 53//2 43//2
f 113//5 7//5 44//5
f 44//5 45//5 174//5
f 45//5 46//5 179//5
f 179//5 46//5 47//5
f 184//5 47//5 48//5
f 103//3 5//3 39//3
f 39//3 40//3 199//3
f 40//3 41//3 204//3
f 41//3 42//3 209//3
f 42//3 43//3 214//3
f 23//2 8//2 48//2
f 69//2 48//2 47//2
f 70//2 47//2 46//2
f 71//2 46//2 45//2
f 72//2 45//2 44//2
f 13//1 98//1 38//1
f 98//1 97//1 37//1
f 97//1 96//1 36//1
f 96//1 95//1 35//1
f 94//1 34//1 35//1
f 213//3 218//3 33//3
f 212//3 217//3 218//3
f 211//3 216//3 217//3
f 210//3 215//3 216//3
f 209//3 214//3 215//3
f 208//3 213//3 32//3
f 207//3 212//3 213//3
f 206//3 211//3 212//3
f 205//3 210//3 211//3
f 204//3 209//3 210//3
f 203//3 208//3 31//3
f 202//3 207//3 208//3
f 201//3 206//3 207//3
f 200//3 205//3 206//3
f 199//3 204//3 205//3
f 198//3 203//3 30//3
f 197//3 202//3 203//3
f 196//3 201//3 202//3
f 195//3 200//3 201//3
f 194//3 199//3 200//3
f 99//3 198//3 29//3
f 100//3 197//3 198//3
f 101//3 196//3 197//3
f 102//3 195//3 196//3
f 103//3 194//3 195//3
f 188//5 193//5 38//5
f 188//5 187//5 192//5
f 187//5 186//5 191//5
f 185//5 190//5 191//5
f 185//5 184//5 189//5
f 183//5 188//5 37//5
f 182//5 187//5 188//5
f 182//5 181//5 186//5
f 180//5 185//5 186//5
f 180//5 179//5 184//5
f 178//5 183//5 36//5
f 178//5 177//5 182//5
f 176//5 181//5 182//5
f 175//5 180//5 181//5
f 174//5 179//5 180//5
f 173//5 178//5 35//5
f 172//5 177//5 178//5
f 171//5 176//5 177//5
f 170//5 175//5 176//5
f 169//5 174//5 175//5
f 109//5 173//5 34//5
f 109//5 110//5 172//5
f 110//5 111//5 171//5
f 111//5 112//5 170//5
f 112//5 113//5 169//5
f 163//4 168//4 18//4
f 162//4 167//4 168//4
f 161//4 166//4 167//4
f 160//4 165//4 166//4
f 159//4 164//4 165//4
f 158//4 163//4 17//4
f 157//4 162//4 163//4
f 156//4 161//4 162//4
f 155//4 160//4 161//4
f 154//4 159//4 160//4
f 153//4 158//4 16//4
f 152//4 157//4 158//4
f 151//4 156//4 157//4
f 150//4 155//4 156//4
f 149//4 154//4 155//4
f 148//4 153//4 15//4
f 147//4 152//4 153//4
f 146//4 151//4 152//4
f 145//4 150//4 151//4
f 144//4 149//4 150//4
f 104//4 148//4 14//4
f 105//4 147//4 148//4
f 106//4 146//4 147//4
f 107//4 145//4 146//4
f 108//4 144//4 145//4
f 138//6 143//6 23//6
f 137//6 142//6 143//6
f 136//6 141//6 142//6
f 135//6 140//6 141//6
f 135//6 134//6 139//6
f 133//6 138//6 22//6
f 133//6 132//6 137//6
f 131//6 136//6 137//6
f 130//6 135//6 136//6
f 130//6 129//6 134//6
f 128//6 133//6 21//6
f 127//6 132//6 133//6
f 126//6 131//6 132//6
f 126//6 125//6 130//6
f 124//6 129//6 130//6
f 123//6 128//6 20//6
f 122//6 127//6 128//6
f 121//6 126//6 127//6
f 120//6 125//6 126//6
f 119//6 124//6 125//6
f 103//6 123//6 19//6
f 102//6 122//6 123//6
f 101//6 121//6 122//6
f 100//6 120//6 121//6
f 99//6 119//6 120//6
f 23//6 143//6 118//6
f 142//6 117//6 118//6
f 141//6 116//6 117//6
f 141//6 140//6 115//6
f 140//6 139//6 114//6
f 193//5 114//5 4//5
f 192//5 115//5 114//5
f 192//5 191//5 116//5
f 191//5 190//5 117//5
f 189//5 118//5 117//5
f 168//4 109//4 3//4
f 167//4 110//4 109//4
f 166//4 111//4 110//4
f 165//4 112//4 111//4
f 164//4 113//4 112//4
f 218//3 104//3 2//3
f 217//3 105//3 104//3
f 216//3 106//3 105//3
f 215//3 107//3 106//3
f 214//3 108//3 107//3
