# Blender v2.78 (sub 0) OBJ File: 'box4.blend'
# www.blender.org
o Cube
v 0.222750 1.262438 -1.697501
v 1.679840 1.266222 -0.327510
v 0.911525 -0.387397 0.494219
v -0.545565 -0.391180 -0.875772
v -0.911525 2.387397 -0.494219
v 0.545565 2.391180 0.875772
v -0.222751 0.737562 1.697501
v -1.679840 0.733778 0.327510
v 0.587023 1.263384 -1.355003
v 0.951295 1.264330 -1.012505
v 1.315568 1.265276 -0.670008
v 0.547253 -0.388343 0.151721
v 0.182980 -0.389288 -0.190777
v -0.181292 -0.390234 -0.533274
v -0.547252 2.388343 -0.151721
v -0.182980 2.389288 0.190777
v 0.181292 2.390234 0.533274
v -0.587023 0.736616 1.355003
v -0.951295 0.735670 1.012505
v -1.315568 0.734724 0.670008
v 0.030672 0.849033 -1.492069
v -0.161407 0.435629 -1.286636
v -0.353486 0.022224 -1.081204
v 1.487761 0.852817 -0.122078
v 1.295683 0.439413 0.083354
v 1.103604 0.026008 0.288787
v -1.103604 1.973992 -0.288787
v -1.295682 1.560588 -0.083354
v -1.487761 1.147183 0.122078
v 0.353486 1.977775 1.081204
v 0.161407 1.564371 1.286636
v -0.030672 1.150966 1.492069
v -1.123489 1.148129 0.464576
v -0.931410 1.561533 0.259143
v -0.739331 1.974938 0.053711
v -0.759217 1.149075 0.807073
v -0.567138 1.562479 0.601641
v -0.375059 1.975884 0.396209
v -0.394944 1.150021 1.149571
v -0.202865 1.563425 0.944139
v -0.010786 1.976830 0.738707
v 0.394944 0.849979 -1.149571
v 0.202865 0.436575 -0.944139
v 0.010786 0.023170 -0.738706
v 0.759216 0.850925 -0.807073
v 0.567138 0.437521 -0.601641
v 0.375059 0.024116 -0.396209
v 1.123489 0.851871 -0.464576
v 0.931410 0.438467 -0.259143
v 0.739331 0.025062 -0.053711
v -0.060819 1.543678 -1.396680
v -0.344387 1.824917 -1.095860
v -0.627956 2.106157 -0.795039
v 1.396271 1.547461 -0.026690
v 1.112702 1.828701 0.274131
v 0.829134 2.109941 0.574952
v 0.627956 -0.106157 0.795039
v 0.344387 0.175083 1.095860
v 0.060818 0.456322 1.396680
v -0.829134 -0.109941 -0.574951
v -1.112702 0.171299 -0.274131
v -1.396271 0.452539 0.026690
v -0.303454 0.455376 1.054183
v -0.019885 0.174137 0.753362
v 0.263684 -0.107103 0.452542
v -0.667727 0.454431 0.711685
v -0.384158 0.173191 0.410864
v -0.100589 -0.108049 0.110044
v -1.031999 0.453485 0.369187
v -0.748430 0.172245 0.068367
v -0.464861 -0.108995 -0.232454
v -0.263684 2.107103 -0.452542
v 0.019885 1.825863 -0.753362
v 0.303454 1.544623 -1.054183
v 0.100589 2.108049 -0.110044
v 0.384158 1.826809 -0.410864
v 0.667726 1.545569 -0.711685
v 0.464861 2.108995 0.232454
v 0.748430 1.827755 -0.068367
v 1.031999 1.546515 -0.369187
v -0.252897 1.130273 -1.191248
v -0.536466 1.411513 -0.890427
v -0.820035 1.692752 -0.589607
v -0.444976 0.716868 -0.985816
v -0.728545 0.998108 -0.684995
v -1.012114 1.279348 -0.384175
v -0.637055 0.303464 -0.780384
v -0.920624 0.584704 -0.479563
v -1.204193 0.865943 -0.178743
v 0.637055 1.696536 0.780384
v 0.920624 1.415296 0.479563
v 1.204193 1.134057 0.178743
v 0.444976 1.283131 0.985816
v 0.728545 1.001892 0.684995
v 1.012114 0.720652 0.384175
v 0.252897 0.869727 1.191248
v 0.536466 0.588487 0.890428
v 0.820035 0.307248 0.589607
vn 0.5671 -0.5625 -0.6016
vn -0.5671 0.5625 0.6016
vn 0.3842 0.8268 -0.4109
vn 0.7285 0.0019 0.6850
vn -0.3842 -0.8268 0.4109
vn -0.7285 -0.0019 -0.6850
s off
f 50//1 3//1 12//1
f 18//2 32//2 39//2
f 17//3 56//3 78//3
f 32//4 59//4 96//4
f 69//5 8//5 62//5
f 23//6 60//6 87//6
f 7//5 63//5 59//5
f 63//5 19//5 66//5
f 19//5 69//5 66//5
f 5//3 72//3 53//3
f 72//3 16//3 75//3
f 16//3 78//3 75//3
f 29//2 20//2 33//2
f 20//2 36//2 33//2
f 19//2 39//2 36//2
f 44//1 4//1 23//1
f 47//1 14//1 44//1
f 50//1 13//1 47//1
f 11//1 45//1 10//1
f 45//1 49//1 46//1
f 49//1 47//1 46//1
f 10//1 42//1 9//1
f 45//1 43//1 42//1
f 46//1 44//1 43//1
f 9//1 21//1 1//1
f 21//1 43//1 22//1
f 43//1 23//1 22//1
f 38//2 17//2 16//2
f 37//2 41//2 38//2
f 37//2 39//2 40//2
f 35//2 16//2 15//2
f 34//2 38//2 35//2
f 33//2 37//2 34//2
f 27//2 15//2 5//2
f 28//2 35//2 27//2
f 29//2 34//2 28//2
f 1//6 81//6 51//6
f 21//6 84//6 81//6
f 22//6 87//6 84//6
f 6//4 90//4 56//4
f 30//4 93//4 90//4
f 31//4 96//4 93//4
f 41//2 6//2 17//2
f 40//2 30//2 41//2
f 39//2 31//2 40//2
f 11//1 24//1 48//1
f 24//1 49//1 48//1
f 25//1 50//1 49//1
f 95//4 26//4 25//4
f 94//4 98//4 95//4
f 93//4 97//4 94//4
f 92//4 25//4 24//4
f 91//4 95//4 92//4
f 90//4 94//4 91//4
f 54//4 24//4 2//4
f 55//4 92//4 54//4
f 56//4 91//4 55//4
f 86//6 29//6 28//6
f 86//6 88//6 89//6
f 84//6 88//6 85//6
f 83//6 28//6 27//6
f 82//6 86//6 83//6
f 82//6 84//6 85//6
f 53//6 27//6 5//6
f 52//6 83//6 53//6
f 51//6 82//6 52//6
f 77//3 11//3 10//3
f 76//3 80//3 77//3
f 75//3 79//3 76//3
f 74//3 10//3 9//3
f 73//3 77//3 74//3
f 72//3 76//3 73//3
f 51//3 9//3 1//3
f 52//3 74//3 51//3
f 53//3 73//3 52//3
f 68//5 14//5 13//5
f 68//5 70//5 71//5
f 67//5 69//5 70//5
f 65//5 13//5 12//5
f 64//5 68//5 65//5
f 63//5 67//5 64//5
f 57//5 12//5 3//5
f 58//5 65//5 57//5
f 59//5 64//5 58//5
f 29//6 62//6 8//6
f 88//6 62//6 89//6
f 87//6 61//6 88//6
f 14//5 60//5 4//5
f 71//5 61//5 60//5
f 69//5 61//5 70//5
f 98//4 3//4 26//4
f 97//4 57//4 98//4
f 96//4 58//4 97//4
f 80//3 2//3 11//3
f 79//3 54//3 80//3
f 78//3 55//3 79//3
f 50//1 26//1 3//1
f 18//2 7//2 32//2
f 17//3 6//3 56//3
f 32//4 7//4 59//4
f 69//5 20//5 8//5
f 23//6 4//6 60//6
f 7//5 18//5 63//5
f 63//5 18//5 19//5
f 19//5 20//5 69//5
f 5//3 15//3 72//3
f 72//3 15//3 16//3
f 16//3 17//3 78//3
f 29//2 8//2 20//2
f 20//2 19//2 36//2
f 19//2 18//2 39//2
f 44//1 14//1 4//1
f 47//1 13//1 14//1
f 50//1 12//1 13//1
f 11//1 48//1 45//1
f 45//1 48//1 49//1
f 49//1 50//1 47//1
f 10//1 45//1 42//1
f 45//1 46//1 43//1
f 46//1 47//1 44//1
f 9//1 42//1 21//1
f 21//1 42//1 43//1
f 43//1 44//1 23//1
f 38//2 41//2 17//2
f 37//2 40//2 41//2
f 37//2 36//2 39//2
f 35//2 38//2 16//2
f 34//2 37//2 38//2
f 33//2 36//2 37//2
f 27//2 35//2 15//2
f 28//2 34//2 35//2
f 29//2 33//2 34//2
f 1//6 21//6 81//6
f 21//6 22//6 84//6
f 22//6 23//6 87//6
f 6//4 30//4 90//4
f 30//4 31//4 93//4
f 31//4 32//4 96//4
f 41//2 30//2 6//2
f 40//2 31//2 30//2
f 39//2 32//2 31//2
f 11//1 2//1 24//1
f 24//1 25//1 49//1
f 25//1 26//1 50//1
f 95//4 98//4 26//4
f 94//4 97//4 98//4
f 93//4 96//4 97//4
f 92//4 95//4 25//4
f 91//4 94//4 95//4
f 90//4 93//4 94//4
f 54//4 92//4 24//4
f 55//4 91//4 92//4
f 56//4 90//4 91//4
f 86//6 89//6 29//6
f 86//6 85//6 88//6
f 84//6 87//6 88//6
f 83//6 86//6 28//6
f 82//6 85//6 86//6
f 82//6 81//6 84//6
f 53//6 83//6 27//6
f 52//6 82//6 83//6
f 51//6 81//6 82//6
f 77//3 80//3 11//3
f 76//3 79//3 80//3
f 75//3 78//3 79//3
f 74//3 77//3 10//3
f 73//3 76//3 77//3
f 72//3 75//3 76//3
f 51//3 74//3 9//3
f 52//3 73//3 74//3
f 53//3 72//3 73//3
f 68//5 71//5 14//5
f 68//5 67//5 70//5
f 67//5 66//5 69//5
f 65//5 68//5 13//5
f 64//5 67//5 68//5
f 63//5 66//5 67//5
f 57//5 65//5 12//5
f 58//5 64//5 65//5
f 59//5 63//5 64//5
f 29//6 89//6 62//6
f 88//6 61//6 62//6
f 87//6 60//6 61//6
f 14//5 71//5 60//5
f 71//5 70//5 61//5
f 69//5 62//5 61//5
f 98//4 57//4 3//4
f 97//4 58//4 57//4
f 96//4 59//4 58//4
f 80//3 54//3 2//3
f 79//3 55//3 54//3
f 78//3 56//3 55//3
