# Blender v2.78 (sub 0) OBJ File: 'box4.blend'
# www.blender.org
o Cube
v 1.000000 0.000000 -1.000000 y
v 1.000000 0.000000 1.000000 y
v -1.000000 0.000000 1.000000 y
v -1.000000 0.000000 -1.000000 y
v 1.000000 2.000000 -0.999999
v 0.999999 2.000000 1.000001
v -1.000000 2.000000 1.000000
v -1.000000 2.000000 -1.000000
v 1.000000 0.000000 -0.500000 y
v 1.000000 0.000000 0.000000 y
v 1.000000 0.000000 0.500000 y
v -1.000000 0.000000 0.500000 y
v -1.000000 0.000000 -0.000000 y
v -1.000000 0.000000 -0.500000 y
v 1.000000 2.000000 -0.499999
v 1.000000 2.000000 0.000001
v 1.000000 2.000000 0.500001
v -1.000000 2.000000 0.500000
v -1.000000 2.000000 -0.000000
v -1.000000 2.000000 -0.500000
v 0.500000 0.000000 -1.000000 y
v 0.000000 0.000000 -1.000000 y
v -0.500000 0.000000 -1.000000 y
v 0.500000 0.000000 1.000000 y
v -0.000000 0.000000 1.000000 y
v -0.500000 0.000000 1.000000 y
v 0.500000 2.000000 -1.000000
v 0.000000 2.000000 -1.000000
v -0.500000 2.000000 -1.000000
v 0.499999 2.000000 1.000000
v -0.000001 2.000000 1.000000
v -0.500000 2.000000 1.000000
v -0.500000 2.000000 -0.500000
v 0.000000 2.000000 -0.500000
v 0.500000 2.000000 -0.500000
v -0.500000 2.000000 -0.000000
v -0.000000 2.000000 0.000000
v 0.500000 2.000000 0.000000
v -0.500000 2.000000 0.500000
v -0.000000 2.000000 0.500000
v 0.500000 2.000000 0.500000
v 0.500000 0.000000 -0.500000 y
v 0.000000 0.000000 -0.500000 y
v -0.500000 0.000000 -0.500000 y
v 0.500000 0.000000 -0.000000 y
v 0.000000 0.000000 -0.000000 y
v -0.500000 0.000000 -0.000000 y
v 0.500000 0.000000 0.500000 y
v 0.000000 0.000000 0.500000 y
v -0.500000 0.000000 0.500000 y
v 1.000000 0.500000 -1.000000
v 1.000000 1.000000 -1.000000
v 1.000000 1.500000 -1.000000
v 1.000000 0.500000 1.000000
v 1.000000 1.000000 1.000000
v 1.000000 1.500000 1.000000
v -1.000000 0.500000 1.000000
v -1.000000 1.000000 1.000000
v -1.000000 1.500000 1.000000
v -1.000000 0.500000 -1.000000
v -1.000000 1.000000 -1.000000
v -1.000000 1.500000 -1.000000
v -1.000000 1.500000 0.500000
v -1.000000 1.000000 0.500000
v -1.000000 0.500000 0.500000
v -1.000000 1.500000 -0.000000
v -1.000000 1.000000 -0.000000
v -1.000000 0.500000 -0.000000
v -1.000000 1.500000 -0.500000
v -1.000000 1.000000 -0.500000
v -1.000000 0.500000 -0.500000
v 1.000000 1.500000 -0.500000
v 1.000000 1.000000 -0.500000
v 1.000000 0.500000 -0.500000
v 1.000000 1.500000 0.000000
v 1.000000 1.000000 0.000000
v 1.000000 0.500000 0.000000
v 1.000000 1.500000 0.500000
v 1.000000 1.000000 0.500000
v 1.000000 0.500000 0.500000
v 0.500000 0.500000 -1.000000
v 0.500000 1.000000 -1.000000
v 0.500000 1.500000 -1.000000
v 0.000000 0.500000 -1.000000
v 0.000000 1.000000 -1.000000
v 0.000000 1.500000 -1.000000
v -0.500000 0.500000 -1.000000
v -0.500000 1.000000 -1.000000
v -0.500000 1.500000 -1.000000
v 0.500000 1.500000 1.000000
v 0.500000 1.000000 1.000000
v 0.500000 0.500000 1.000000
v -0.000000 1.500000 1.000000
v -0.000000 1.000000 1.000000
v -0.000000 0.500000 1.000000
v -0.500000 1.500000 1.000000
v -0.500000 1.000000 1.000000
v -0.500000 0.500000 1.000000
vn 0.0000 -1.0000 0.0000
vn 0.0000 1.0000 0.0000
vn 1.0000 0.0000 0.0000
vn -0.0000 -0.0000 1.0000
vn -1.0000 -0.0000 -0.0000
vn 0.0000 0.0000 -1.0000
s off
f 26//1 12//1 50//1
f 18//2 32//2 39//2
f 17//3 56//3 78//3
f 32//4 59//4 96//4
f 20//5 62//5 69//5
f 87//6 4//6 60//6
f 7//5 63//5 59//5
f 18//5 66//5 63//5
f 19//5 69//5 66//5
f 5//3 72//3 53//3
f 15//3 75//3 72//3
f 16//3 78//3 75//3
f 29//2 20//2 33//2
f 20//2 36//2 33//2
f 36//2 18//2 39//2
f 44//1 4//1 23//1
f 47//1 14//1 44//1
f 50//1 13//1 47//1
f 10//1 48//1 45//1
f 45//1 49//1 46//1
f 46//1 50//1 47//1
f 9//1 45//1 42//1
f 45//1 43//1 42//1
f 43//1 47//1 44//1
f 9//1 21//1 1//1
f 21//1 43//1 22//1
f 22//1 44//1 23//1
f 38//2 17//2 16//2
f 38//2 40//2 41//2
f 36//2 40//2 37//2
f 35//2 16//2 15//2
f 34//2 38//2 35//2
f 33//2 37//2 34//2
f 27//2 15//2 5//2
f 28//2 35//2 27//2
f 29//2 34//2 28//2
f 1//6 81//6 51//6
f 21//6 84//6 81//6
f 22//6 87//6 84//6
f 6//4 90//4 56//4
f 30//4 93//4 90//4
f 31//4 96//4 93//4
f 41//2 6//2 17//2
f 40//2 30//2 41//2
f 40//2 32//2 31//2
f 11//1 24//1 48//1
f 24//1 49//1 48//1
f 25//1 50//1 49//1
f 95//4 26//4 25//4
f 94//4 98//4 95//4
f 93//4 97//4 94//4
f 92//4 25//4 24//4
f 91//4 95//4 92//4
f 90//4 94//4 91//4
f 54//4 24//4 2//4
f 55//4 92//4 54//4
f 56//4 91//4 55//4
f 86//6 29//6 28//6
f 85//6 89//6 86//6
f 84//6 88//6 85//6
f 83//6 28//6 27//6
f 82//6 86//6 83//6
f 81//6 85//6 82//6
f 53//6 27//6 5//6
f 52//6 83//6 53//6
f 51//6 82//6 52//6
f 77//3 11//3 10//3
f 76//3 80//3 77//3
f 75//3 79//3 76//3
f 74//3 10//3 9//3
f 73//3 77//3 74//3
f 72//3 76//3 73//3
f 51//3 9//3 1//3
f 52//3 74//3 51//3
f 53//3 73//3 52//3
f 13//5 71//5 14//5
f 67//5 71//5 68//5
f 67//5 69//5 70//5
f 65//5 13//5 12//5
f 64//5 68//5 65//5
f 64//5 66//5 67//5
f 57//5 12//5 3//5
f 58//5 65//5 57//5
f 59//5 64//5 58//5
f 89//6 8//6 29//6
f 88//6 62//6 89//6
f 88//6 60//6 61//6
f 71//5 4//5 14//5
f 71//5 61//5 60//5
f 70//5 62//5 61//5
f 98//4 3//4 26//4
f 97//4 57//4 98//4
f 96//4 58//4 97//4
f 80//3 2//3 11//3
f 79//3 54//3 80//3
f 78//3 55//3 79//3
f 26//1 3//1 12//1
f 18//2 7//2 32//2
f 17//3 6//3 56//3
f 32//4 7//4 59//4
f 20//5 8//5 62//5
f 87//6 23//6 4//6
f 7//5 18//5 63//5
f 18//5 19//5 66//5
f 19//5 20//5 69//5
f 5//3 15//3 72//3
f 15//3 16//3 75//3
f 16//3 17//3 78//3
f 29//2 8//2 20//2
f 20//2 19//2 36//2
f 36//2 19//2 18//2
f 44//1 14//1 4//1
f 47//1 13//1 14//1
f 50//1 12//1 13//1
f 10//1 11//1 48//1
f 45//1 48//1 49//1
f 46//1 49//1 50//1
f 9//1 10//1 45//1
f 45//1 46//1 43//1
f 43//1 46//1 47//1
f 9//1 42//1 21//1
f 21//1 42//1 43//1
f 22//1 43//1 44//1
f 38//2 41//2 17//2
f 38//2 37//2 40//2
f 36//2 39//2 40//2
f 35//2 38//2 16//2
f 34//2 37//2 38//2
f 33//2 36//2 37//2
f 27//2 35//2 15//2
f 28//2 34//2 35//2
f 29//2 33//2 34//2
f 1//6 21//6 81//6
f 21//6 22//6 84//6
f 22//6 23//6 87//6
f 6//4 30//4 90//4
f 30//4 31//4 93//4
f 31//4 32//4 96//4
f 41//2 30//2 6//2
f 40//2 31//2 30//2
f 40//2 39//2 32//2
f 11//1 2//1 24//1
f 24//1 25//1 49//1
f 25//1 26//1 50//1
f 95//4 98//4 26//4
f 94//4 97//4 98//4
f 93//4 96//4 97//4
f 92//4 95//4 25//4
f 91//4 94//4 95//4
f 90//4 93//4 94//4
f 54//4 92//4 24//4
f 55//4 91//4 92//4
f 56//4 90//4 91//4
f 86//6 89//6 29//6
f 85//6 88//6 89//6
f 84//6 87//6 88//6
f 83//6 86//6 28//6
f 82//6 85//6 86//6
f 81//6 84//6 85//6
f 53//6 83//6 27//6
f 52//6 82//6 83//6
f 51//6 81//6 82//6
f 77//3 80//3 11//3
f 76//3 79//3 80//3
f 75//3 78//3 79//3
f 74//3 77//3 10//3
f 73//3 76//3 77//3
f 72//3 75//3 76//3
f 51//3 74//3 9//3
f 52//3 73//3 74//3
f 53//3 72//3 73//3
f 13//5 68//5 71//5
f 67//5 70//5 71//5
f 67//5 66//5 69//5
f 65//5 68//5 13//5
f 64//5 67//5 68//5
f 64//5 63//5 66//5
f 57//5 65//5 12//5
f 58//5 64//5 65//5
f 59//5 63//5 64//5
f 89//6 62//6 8//6
f 88//6 61//6 62//6
f 88//6 87//6 60//6
f 71//5 60//5 4//5
f 71//5 70//5 61//5
f 70//5 69//5 62//5
f 98//4 57//4 3//4
f 97//4 58//4 57//4
f 96//4 59//4 58//4
f 80//3 54//3 2//3
f 79//3 55//3 54//3
f 78//3 56//3 55//3
