# Blender v2.78 (sub 0) OBJ File: ''
# www.blender.org
o Cube
v -1.397714 -0.218692 0.999284
v -1.337643 0.864146 -0.681148
v -0.327247 -0.602949 -1.590397
v -0.387319 -1.685787 0.090036
v 0.327247 0.602949 1.590397
v 0.387319 1.685787 -0.090036
v 1.397714 0.218692 -0.999284
v 1.337643 -0.864146 0.681148
vn -0.8625 -0.4108 -0.2956
vn 0.8625 0.4108 0.2956
vn -0.5052 0.7335 0.4546
vn 0.0300 0.5414 -0.8402
vn 0.5052 -0.7335 -0.4546
vn -0.0300 -0.5414 0.8402
s off
f 1//1 3//1 4//1
f 8//2 6//2 5//2
f 5//3 2//3 1//3
f 6//4 3//4 2//4
f 3//5 8//5 4//5
f 1//6 8//6 5//6
f 1//1 2//1 3//1
f 8//2 7//2 6//2
f 5//3 6//3 2//3
f 6//4 7//4 3//4
f 3//5 7//5 8//5
f 1//6 4//6 8//6
