# Blender v2.78 (sub 0) OBJ File: 'jelly.blend'
# www.blender.org
o Cube
v 1.000000 0.005922 -1.000000
v 1.000000 0.005922 1.000000
v -1.000000 0.005922 1.000000
v -1.000000 0.005922 -1.000000
v 1.000000 2.005922 -0.999999
v 0.999999 2.005922 1.000001
v -1.000000 2.005922 1.000000
v -1.000000 2.005922 -1.000000
v 1.000000 0.000000 -1.000000
v 1.000000 0.000000 1.000000
v -1.000000 0.000000 1.000000
v -1.000000 0.000000 -1.000000
v 1.000000 2.005922 -0.999999
v 0.999999 2.005922 1.000001
v -1.000000 2.005922 1.000000
v -1.000000 2.005922 -1.000000
v 1.000000 3.531171 -0.999999
v 0.999999 3.531171 1.000001
v -1.000000 3.531171 1.000000
v -1.000000 3.531171 -1.000000
v 3.127298 2.005922 -0.999998
v 3.127297 2.005922 1.000002
v 3.127298 3.531171 -0.999998
v 3.127297 3.531171 1.000002
v -2.979903 2.005922 0.999999
v -2.979903 2.005922 -1.000000
v -2.979903 3.531171 0.999999
v -2.979903 3.531171 -1.000000
v 1.000000 5.225295 -0.999999
v 0.999999 5.225295 1.000001
v -1.000000 5.225295 -1.000000
v -1.000000 5.225295 1.000000
v 1.000001 2.005922 -3.144412
v -0.999999 2.005922 -3.144413
v 1.000001 3.531171 -3.144412
v -0.999999 3.531171 -3.144413
v 0.999998 2.005922 2.828306
v -1.000001 2.005922 2.828305
v 0.999998 3.531171 2.828306
v -1.000001 3.531171 2.828305
v 1.000000 7.509542 -0.999999
v 0.999999 7.509542 1.000001
v -1.000000 7.509542 -1.000000
v -1.000000 7.509542 1.000000
v 2.997997 5.225295 -0.999998
v 2.997996 5.225295 1.000002
v 2.997997 7.509542 -0.999998
v 2.997996 7.509542 1.000002
v -2.916446 5.225295 0.999999
v -2.916445 5.225295 -1.000000
v -2.916446 7.509542 0.999999
v -2.916445 7.509542 -1.000000
vn 0.0000 1.0000 0.0000
vn 0.0000 -1.0000 0.0000
vn -1.0000 0.0000 0.0000
vn 0.0000 0.0000 -1.0000
vn 1.0000 0.0000 0.0000
vn -0.0000 -0.0000 1.0000
s off
f 4//1 2//1 1//1
f 6//2 8//2 5//2
f 2//3 5//3 1//3
f 3//4 6//4 2//4
f 3//5 8//5 7//5
f 8//6 1//6 5//6
f 10//2 12//2 9//2
f 14//2 38//2 15//2
f 13//5 10//5 9//5
f 14//6 11//6 10//6
f 15//3 12//3 11//3
f 9//4 16//4 13//4
f 18//6 32//6 19//6
f 17//4 21//4 13//4
f 16//4 28//4 20//4
f 20//3 34//3 16//3
f 21//5 24//5 22//5
f 14//6 24//6 18//6
f 18//1 23//1 17//1
f 13//2 22//2 14//2
f 25//3 28//3 26//3
f 19//6 25//6 15//6
f 20//1 27//1 19//1
f 15//2 26//2 16//2
f 31//4 52//4 43//4
f 17//5 30//5 18//5
f 19//3 31//3 20//3
f 20//4 29//4 17//4
f 34//4 35//4 33//4
f 17//1 36//1 20//1
f 13//2 34//2 33//2
f 13//5 35//5 17//5
f 37//6 40//6 38//6
f 15//3 40//3 19//3
f 18//5 37//5 14//5
f 19//1 39//1 18//1
f 43//1 42//1 41//1
f 31//4 41//4 29//4
f 30//6 44//6 32//6
f 30//6 48//6 42//6
f 45//5 48//5 46//5
f 41//4 45//4 29//4
f 41//1 48//1 47//1
f 29//2 46//2 30//2
f 49//3 52//3 50//3
f 43//1 51//1 44//1
f 32//2 50//2 31//2
f 44//6 49//6 32//6
f 4//1 3//1 2//1
f 6//2 7//2 8//2
f 2//3 6//3 5//3
f 3//4 7//4 6//4
f 3//5 4//5 8//5
f 8//6 4//6 1//6
f 10//2 11//2 12//2
f 14//2 37//2 38//2
f 13//5 14//5 10//5
f 14//6 15//6 11//6
f 15//3 16//3 12//3
f 9//4 12//4 16//4
f 18//6 30//6 32//6
f 17//4 23//4 21//4
f 16//4 26//4 28//4
f 20//3 36//3 34//3
f 21//5 23//5 24//5
f 14//6 22//6 24//6
f 18//1 24//1 23//1
f 13//2 21//2 22//2
f 25//3 27//3 28//3
f 19//6 27//6 25//6
f 20//1 28//1 27//1
f 15//2 25//2 26//2
f 31//4 50//4 52//4
f 17//5 29//5 30//5
f 19//3 32//3 31//3
f 20//4 31//4 29//4
f 34//4 36//4 35//4
f 17//1 35//1 36//1
f 13//2 16//2 34//2
f 13//5 33//5 35//5
f 37//6 39//6 40//6
f 15//3 38//3 40//3
f 18//5 39//5 37//5
f 19//1 40//1 39//1
f 43//1 44//1 42//1
f 31//4 43//4 41//4
f 30//6 42//6 44//6
f 30//6 46//6 48//6
f 45//5 47//5 48//5
f 41//4 47//4 45//4
f 41//1 42//1 48//1
f 29//2 45//2 46//2
f 49//3 51//3 52//3
f 43//1 52//1 51//1
f 32//2 49//2 50//2
f 44//6 51//6 49//6
